<svg width="265" height="78" viewBox="0 0 265 78" fill="none" xmlns="http://www.w3.org/2000/svg">
<g filter="url(#filter0_d_133_1395)">
<path d="M4 0H261V70H4V0Z" fill="#444444"/>
<path d="M5.5 1.5H259.5V68.5H5.5V1.5Z" stroke="#E5E5E5" stroke-width="3"/>
</g>
<g filter="url(#filter1_d_133_1395)">
<path d="M30 33.5L30 23C30 22.1716 30.6716 21.5 31.5 21.5L42.8446 21.5C43.2625 21.5 43.6614 21.6743 43.9453 21.9809L50.6006 29.1687C50.8574 29.446 51 29.8099 51 30.1878V47C51 47.8284 50.3284 48.5 49.5 48.5H40.5" stroke="white" stroke-width="2" stroke-linecap="round" stroke-linejoin="round"/>
<path d="M27 48.5H30.75L42 37.25L38.25 33.5L27 44.75V48.5Z" stroke="white" stroke-width="2" stroke-linecap="round" stroke-linejoin="round"/>
<path d="M34.5 38L37.5 41" stroke="white" stroke-width="2" stroke-linecap="round" stroke-linejoin="round"/>
<path d="M51 30.5L43.5 30.5C42.6716 30.5 42 29.8284 42 29L42 21.5" stroke="white" stroke-width="2" stroke-linecap="round" stroke-linejoin="round"/>
</g>
<g filter="url(#filter2_d_133_1395)">
<path d="M79.552 25.384C79.552 26.0347 79.4027 26.632 79.104 27.176C78.8053 27.7093 78.3467 28.1413 77.728 28.472C77.1093 28.8027 76.3413 28.968 75.424 28.968H73.728V33H70.992V21.768H75.424C76.32 21.768 77.0773 21.9227 77.696 22.232C78.3147 22.5413 78.7787 22.968 79.088 23.512C79.3973 24.056 79.552 24.68 79.552 25.384ZM75.216 26.792C75.7387 26.792 76.128 26.6693 76.384 26.424C76.64 26.1787 76.768 25.832 76.768 25.384C76.768 24.936 76.64 24.5893 76.384 24.344C76.128 24.0987 75.7387 23.976 75.216 23.976H73.728V26.792H75.216ZM83.7124 21.16V33H80.9764V21.16H83.7124ZM85.1511 28.52C85.1511 27.6027 85.3218 26.7973 85.6631 26.104C86.0151 25.4107 86.4898 24.8773 87.0871 24.504C87.6845 24.1307 88.3511 23.944 89.0871 23.944C89.7165 23.944 90.2658 24.072 90.7351 24.328C91.2151 24.584 91.5831 24.92 91.8391 25.336V24.072H94.5751V33H91.8391V31.736C91.5725 32.152 91.1991 32.488 90.7191 32.744C90.2498 33 89.7005 33.128 89.0711 33.128C88.3458 33.128 87.6845 32.9413 87.0871 32.568C86.4898 32.184 86.0151 31.6453 85.6631 30.952C85.3218 30.248 85.1511 29.4373 85.1511 28.52ZM91.8391 28.536C91.8391 27.8533 91.6471 27.3147 91.2631 26.92C90.8898 26.5253 90.4311 26.328 89.8871 26.328C89.3431 26.328 88.8791 26.5253 88.4951 26.92C88.1218 27.304 87.9351 27.8373 87.9351 28.52C87.9351 29.2027 88.1218 29.7467 88.4951 30.152C88.8791 30.5467 89.3431 30.744 89.8871 30.744C90.4311 30.744 90.8898 30.5467 91.2631 30.152C91.6471 29.7573 91.8391 29.2187 91.8391 28.536ZM101.531 30.68V33H100.139C99.1465 33 98.3732 32.76 97.8185 32.28C97.2638 31.7893 96.9865 30.9947 96.9865 29.896V26.344H95.8985V24.072H96.9865V21.896H99.7225V24.072H101.515V26.344H99.7225V29.928C99.7225 30.1947 99.7865 30.3867 99.9145 30.504C100.043 30.6213 100.256 30.68 100.555 30.68H101.531ZM102.511 28.52C102.511 27.6027 102.681 26.7973 103.023 26.104C103.375 25.4107 103.849 24.8773 104.447 24.504C105.044 24.1307 105.711 23.944 106.447 23.944C107.076 23.944 107.625 24.072 108.095 24.328C108.575 24.584 108.943 24.92 109.199 25.336V24.072H111.935V33H109.199V31.736C108.932 32.152 108.559 32.488 108.079 32.744C107.609 33 107.06 33.128 106.431 33.128C105.705 33.128 105.044 32.9413 104.447 32.568C103.849 32.184 103.375 31.6453 103.023 30.952C102.681 30.248 102.511 29.4373 102.511 28.52ZM109.199 28.536C109.199 27.8533 109.007 27.3147 108.623 26.92C108.249 26.5253 107.791 26.328 107.247 26.328C106.703 26.328 106.239 26.5253 105.855 26.92C105.481 27.304 105.295 27.8373 105.295 28.52C105.295 29.2027 105.481 29.7467 105.855 30.152C106.239 30.5467 106.703 30.744 107.247 30.744C107.791 30.744 108.249 30.5467 108.623 30.152C109.007 29.7573 109.199 29.2187 109.199 28.536ZM118.394 26.344H116.922V33H114.186V26.344H113.194V24.072H114.186V23.816C114.186 22.7173 114.501 21.8853 115.13 21.32C115.759 20.744 116.682 20.456 117.898 20.456C118.101 20.456 118.25 20.4613 118.346 20.472V22.792C117.823 22.76 117.455 22.8347 117.242 23.016C117.029 23.1973 116.922 23.5227 116.922 23.992V24.072H118.394V26.344ZM123.744 33.128C122.869 33.128 122.08 32.9413 121.376 32.568C120.682 32.1947 120.133 31.6613 119.728 30.968C119.333 30.2747 119.136 29.464 119.136 28.536C119.136 27.6187 119.338 26.8133 119.743 26.12C120.149 25.416 120.704 24.8773 121.408 24.504C122.112 24.1307 122.901 23.944 123.776 23.944C124.65 23.944 125.44 24.1307 126.144 24.504C126.848 24.8773 127.402 25.416 127.808 26.12C128.213 26.8133 128.416 27.6187 128.416 28.536C128.416 29.4533 128.208 30.264 127.792 30.968C127.386 31.6613 126.826 32.1947 126.112 32.568C125.408 32.9413 124.618 33.128 123.744 33.128ZM123.744 30.76C124.266 30.76 124.709 30.568 125.072 30.184C125.445 29.8 125.632 29.2507 125.632 28.536C125.632 27.8213 125.45 27.272 125.088 26.888C124.736 26.504 124.298 26.312 123.776 26.312C123.242 26.312 122.8 26.504 122.448 26.888C122.096 27.2613 121.92 27.8107 121.92 28.536C121.92 29.2507 122.09 29.8 122.432 30.184C122.784 30.568 123.221 30.76 123.744 30.76ZM132.603 25.56C132.923 25.0693 133.323 24.6853 133.803 24.408C134.283 24.12 134.816 23.976 135.403 23.976V26.872H134.651C133.968 26.872 133.456 27.0213 133.115 27.32C132.774 27.608 132.603 28.12 132.603 28.856V33H129.867V24.072H132.603V25.56ZM148.103 23.976C149.212 23.976 150.092 24.312 150.743 24.984C151.404 25.656 151.735 26.5893 151.735 27.784V33H149.015V28.152C149.015 27.576 148.86 27.1333 148.551 26.824C148.252 26.504 147.836 26.344 147.303 26.344C146.769 26.344 146.348 26.504 146.039 26.824C145.74 27.1333 145.591 27.576 145.591 28.152V33H142.871V28.152C142.871 27.576 142.716 27.1333 142.407 26.824C142.108 26.504 141.692 26.344 141.159 26.344C140.625 26.344 140.204 26.504 139.895 26.824C139.596 27.1333 139.447 27.576 139.447 28.152V33H136.711V24.072H139.447V25.192C139.724 24.8187 140.087 24.5253 140.535 24.312C140.983 24.088 141.489 23.976 142.055 23.976C142.727 23.976 143.324 24.12 143.847 24.408C144.38 24.696 144.796 25.1067 145.095 25.64C145.404 25.1493 145.825 24.7493 146.359 24.44C146.892 24.1307 147.473 23.976 148.103 23.976ZM153.104 28.52C153.104 27.6027 153.275 26.7973 153.616 26.104C153.968 25.4107 154.443 24.8773 155.04 24.504C155.638 24.1307 156.304 23.944 157.04 23.944C157.67 23.944 158.219 24.072 158.688 24.328C159.168 24.584 159.536 24.92 159.792 25.336V24.072H162.528V33H159.792V31.736C159.526 32.152 159.152 32.488 158.672 32.744C158.203 33 157.654 33.128 157.024 33.128C156.299 33.128 155.638 32.9413 155.04 32.568C154.443 32.184 153.968 31.6453 153.616 30.952C153.275 30.248 153.104 29.4373 153.104 28.52ZM159.792 28.536C159.792 27.8533 159.6 27.3147 159.216 26.92C158.843 26.5253 158.384 26.328 157.84 26.328C157.296 26.328 156.832 26.5253 156.448 26.92C156.075 27.304 155.888 27.8373 155.888 28.52C155.888 29.2027 156.075 29.7467 156.448 30.152C156.832 30.5467 157.296 30.744 157.84 30.744C158.384 30.744 158.843 30.5467 159.216 30.152C159.6 29.7573 159.792 29.2187 159.792 28.536Z" fill="white"/>
<path d="M73.728 47.0941H77.312V49.2061H70.992V37.9741H73.728V47.0941ZM87.033 44.5981C87.033 44.8541 87.017 45.1207 86.985 45.3981H80.793C80.8357 45.9527 81.0117 46.3794 81.321 46.6781C81.641 46.9661 82.0303 47.1101 82.489 47.1101C83.1717 47.1101 83.6463 46.8221 83.913 46.2461H86.825C86.6757 46.8327 86.4037 47.3607 86.009 47.8301C85.625 48.2994 85.1397 48.6674 84.553 48.9341C83.9663 49.2007 83.3103 49.3341 82.585 49.3341C81.7103 49.3341 80.9317 49.1474 80.249 48.7741C79.5663 48.4007 79.033 47.8674 78.649 47.1741C78.265 46.4807 78.073 45.6701 78.073 44.7421C78.073 43.8141 78.2597 43.0034 78.633 42.3101C79.017 41.6167 79.5503 41.0834 80.233 40.7101C80.9157 40.3367 81.6997 40.1501 82.585 40.1501C83.449 40.1501 84.217 40.3314 84.889 40.6941C85.561 41.0567 86.0837 41.5741 86.457 42.2461C86.841 42.9181 87.033 43.7021 87.033 44.5981ZM84.233 43.8781C84.233 43.4087 84.073 43.0354 83.753 42.7581C83.433 42.4807 83.033 42.3421 82.553 42.3421C82.0943 42.3421 81.705 42.4754 81.385 42.7421C81.0757 43.0087 80.8837 43.3874 80.809 43.8781H84.233ZM97.5964 40.2781L91.9964 53.4461H89.0524L91.1004 48.9021L87.4684 40.2781H90.5244L92.5884 45.8621L94.6364 40.2781H97.5964ZM101.432 44.7261C101.432 43.8087 101.603 43.0034 101.944 42.3101C102.296 41.6167 102.771 41.0834 103.368 40.7101C103.966 40.3367 104.632 40.1501 105.368 40.1501C105.955 40.1501 106.488 40.2727 106.968 40.5181C107.459 40.7634 107.843 41.0941 108.12 41.5101V37.3661H110.856V49.2061H108.12V47.9261C107.864 48.3527 107.496 48.6941 107.016 48.9501C106.547 49.2061 105.998 49.3341 105.368 49.3341C104.632 49.3341 103.966 49.1474 103.368 48.7741C102.771 48.3901 102.296 47.8514 101.944 47.1581C101.603 46.4541 101.432 45.6434 101.432 44.7261ZM108.12 44.7421C108.12 44.0594 107.928 43.5207 107.544 43.1261C107.171 42.7314 106.712 42.5341 106.168 42.5341C105.624 42.5341 105.16 42.7314 104.776 43.1261C104.403 43.5101 104.216 44.0434 104.216 44.7261C104.216 45.4087 104.403 45.9527 104.776 46.3581C105.16 46.7527 105.624 46.9501 106.168 46.9501C106.712 46.9501 107.171 46.7527 107.544 46.3581C107.928 45.9634 108.12 45.4247 108.12 44.7421ZM121.252 44.5981C121.252 44.8541 121.236 45.1207 121.204 45.3981H115.012C115.054 45.9527 115.23 46.3794 115.54 46.6781C115.86 46.9661 116.249 47.1101 116.708 47.1101C117.39 47.1101 117.865 46.8221 118.132 46.2461H121.044C120.894 46.8327 120.622 47.3607 120.228 47.8301C119.844 48.2994 119.358 48.6674 118.772 48.9341C118.185 49.2007 117.529 49.3341 116.804 49.3341C115.929 49.3341 115.15 49.1474 114.468 48.7741C113.785 48.4007 113.252 47.8674 112.868 47.1741C112.484 46.4807 112.292 45.6701 112.292 44.7421C112.292 43.8141 112.478 43.0034 112.852 42.3101C113.236 41.6167 113.769 41.0834 114.452 40.7101C115.134 40.3367 115.918 40.1501 116.804 40.1501C117.668 40.1501 118.436 40.3314 119.108 40.6941C119.78 41.0567 120.302 41.5741 120.676 42.2461C121.06 42.9181 121.252 43.7021 121.252 44.5981ZM118.452 43.8781C118.452 43.4087 118.292 43.0354 117.972 42.7581C117.652 42.4807 117.252 42.3421 116.772 42.3421C116.313 42.3421 115.924 42.4754 115.604 42.7421C115.294 43.0087 115.102 43.3874 115.028 43.8781H118.452ZM125.431 37.3661V49.2061H122.695V37.3661H125.431ZM133.541 47.0941H137.125V49.2061H130.805V37.9741H133.541V47.0941ZM142.494 49.3341C141.619 49.3341 140.83 49.1474 140.126 48.7741C139.432 48.4007 138.883 47.8674 138.478 47.1741C138.083 46.4807 137.886 45.6701 137.886 44.7421C137.886 43.8247 138.088 43.0194 138.493 42.3261C138.899 41.6221 139.454 41.0834 140.158 40.7101C140.862 40.3367 141.651 40.1501 142.526 40.1501C143.4 40.1501 144.19 40.3367 144.894 40.7101C145.598 41.0834 146.152 41.6221 146.558 42.3261C146.963 43.0194 147.166 43.8247 147.166 44.7421C147.166 45.6594 146.958 46.4701 146.542 47.1741C146.136 47.8674 145.576 48.4007 144.862 48.7741C144.158 49.1474 143.368 49.3341 142.494 49.3341ZM142.494 46.9661C143.016 46.9661 143.459 46.7741 143.822 46.3901C144.195 46.0061 144.382 45.4567 144.382 44.7421C144.382 44.0274 144.2 43.4781 143.838 43.0941C143.486 42.7101 143.048 42.5181 142.526 42.5181C141.992 42.5181 141.55 42.7101 141.198 43.0941C140.846 43.4674 140.67 44.0167 140.67 44.7421C140.67 45.4567 140.84 46.0061 141.182 46.3901C141.534 46.7741 141.971 46.9661 142.494 46.9661ZM151.353 41.5421C151.609 41.1261 151.977 40.7901 152.457 40.5341C152.937 40.2781 153.486 40.1501 154.105 40.1501C154.841 40.1501 155.508 40.3367 156.105 40.7101C156.702 41.0834 157.172 41.6167 157.513 42.3101C157.865 43.0034 158.041 43.8087 158.041 44.7261C158.041 45.6434 157.865 46.4541 157.513 47.1581C157.172 47.8514 156.702 48.3901 156.105 48.7741C155.508 49.1474 154.841 49.3341 154.105 49.3341C153.476 49.3341 152.926 49.2114 152.457 48.9661C151.988 48.7101 151.62 48.3741 151.353 47.9581V49.2061H148.617V37.3661H151.353V41.5421ZM155.257 44.7261C155.257 44.0434 155.065 43.5101 154.681 43.1261C154.308 42.7314 153.844 42.5341 153.289 42.5341C152.745 42.5341 152.281 42.7314 151.897 43.1261C151.524 43.5207 151.337 44.0594 151.337 44.7421C151.337 45.4247 151.524 45.9634 151.897 46.3581C152.281 46.7527 152.745 46.9501 153.289 46.9501C153.833 46.9501 154.297 46.7527 154.681 46.3581C155.065 45.9527 155.257 45.4087 155.257 44.7261ZM162.212 41.5421C162.468 41.1261 162.836 40.7901 163.316 40.5341C163.796 40.2781 164.346 40.1501 164.964 40.1501C165.7 40.1501 166.367 40.3367 166.964 40.7101C167.562 41.0834 168.031 41.6167 168.372 42.3101C168.724 43.0034 168.9 43.8087 168.9 44.7261C168.9 45.6434 168.724 46.4541 168.372 47.1581C168.031 47.8514 167.562 48.3901 166.964 48.7741C166.367 49.1474 165.7 49.3341 164.964 49.3341C164.335 49.3341 163.786 49.2114 163.316 48.9661C162.847 48.7101 162.479 48.3741 162.212 47.9581V49.2061H159.476V37.3661H162.212V41.5421ZM166.116 44.7261C166.116 44.0434 165.924 43.5101 165.54 43.1261C165.167 42.7314 164.703 42.5341 164.148 42.5341C163.604 42.5341 163.14 42.7314 162.756 43.1261C162.383 43.5207 162.196 44.0594 162.196 44.7421C162.196 45.4247 162.383 45.9634 162.756 46.3581C163.14 46.7527 163.604 46.9501 164.148 46.9501C164.692 46.9501 165.156 46.7527 165.54 46.3581C165.924 45.9527 166.116 45.4087 166.116 44.7261ZM179.456 40.2781L173.856 53.4461H170.912L172.96 48.9021L169.328 40.2781H172.384L174.448 45.8621L176.496 40.2781H179.456Z" fill="white"/>
</g>
<rect x="202" y="3" width="56" height="12" fill="#EB3C46"/>
<rect x="149" y="3" width="56" height="12" fill="#0F69B4"/>
<defs>
<filter id="filter0_d_133_1395" x="0" y="0" width="265" height="78" filterUnits="userSpaceOnUse" color-interpolation-filters="sRGB">
<feFlood flood-opacity="0" result="BackgroundImageFix"/>
<feColorMatrix in="SourceAlpha" type="matrix" values="0 0 0 0 0 0 0 0 0 0 0 0 0 0 0 0 0 0 127 0" result="hardAlpha"/>
<feOffset dy="4"/>
<feGaussianBlur stdDeviation="2"/>
<feComposite in2="hardAlpha" operator="out"/>
<feColorMatrix type="matrix" values="0 0 0 0 0 0 0 0 0 0 0 0 0 0 0 0 0 0 0.25 0"/>
<feBlend mode="normal" in2="BackgroundImageFix" result="effect1_dropShadow_133_1395"/>
<feBlend mode="normal" in="SourceGraphic" in2="effect1_dropShadow_133_1395" result="shape"/>
</filter>
<filter id="filter1_d_133_1395" x="17" y="17" width="44" height="44" filterUnits="userSpaceOnUse" color-interpolation-filters="sRGB">
<feFlood flood-opacity="0" result="BackgroundImageFix"/>
<feColorMatrix in="SourceAlpha" type="matrix" values="0 0 0 0 0 0 0 0 0 0 0 0 0 0 0 0 0 0 127 0" result="hardAlpha"/>
<feOffset dy="4"/>
<feGaussianBlur stdDeviation="2"/>
<feComposite in2="hardAlpha" operator="out"/>
<feColorMatrix type="matrix" values="0 0 0 0 0 0 0 0 0 0 0 0 0 0 0 0 0 0 0.25 0"/>
<feBlend mode="normal" in2="BackgroundImageFix" result="effect1_dropShadow_133_1395"/>
<feBlend mode="normal" in="SourceGraphic" in2="effect1_dropShadow_133_1395" result="shape"/>
</filter>
<filter id="filter2_d_133_1395" x="66.9919" y="20.4561" width="116.464" height="40.9902" filterUnits="userSpaceOnUse" color-interpolation-filters="sRGB">
<feFlood flood-opacity="0" result="BackgroundImageFix"/>
<feColorMatrix in="SourceAlpha" type="matrix" values="0 0 0 0 0 0 0 0 0 0 0 0 0 0 0 0 0 0 127 0" result="hardAlpha"/>
<feOffset dy="4"/>
<feGaussianBlur stdDeviation="2"/>
<feComposite in2="hardAlpha" operator="out"/>
<feColorMatrix type="matrix" values="0 0 0 0 0 0 0 0 0 0 0 0 0 0 0 0 0 0 0.25 0"/>
<feBlend mode="normal" in2="BackgroundImageFix" result="effect1_dropShadow_133_1395"/>
<feBlend mode="normal" in="SourceGraphic" in2="effect1_dropShadow_133_1395" result="shape"/>
</filter>
</defs>
</svg>
