<svg width="37" height="43" viewBox="0 0 37 43" fill="none" xmlns="http://www.w3.org/2000/svg">
<path d="M36.7812 4.625H33.9688V2.3757C33.9688 1.29219 33.1545 0.40625 32.1617 0.40625H23.1167C22.1267 0.40625 21.3125 1.29219 21.3125 2.3757V4.625H4.39602L0.21875 13.0625H3.11914V18.6875H2.64945L0.306641 21.5L2.64945 24.3125H3.16273V25.8228C3.16273 26.2046 3.45734 26.5133 3.82227 26.5133C4.91281 26.5133 5.80016 27.4442 5.80016 28.5882C5.80016 29.7322 4.91281 30.6631 3.82227 30.6631C2.73172 30.6631 1.84438 29.7322 1.84438 28.5882C1.84438 28.2064 1.54906 27.8977 1.18484 27.8977C0.819922 27.8977 0.525312 28.2064 0.525312 28.5882C0.526719 30.4965 2.00469 32.0469 3.82227 32.0469C5.63914 32.0469 7.11852 30.4965 7.11852 28.5889C7.11852 26.919 5.98438 25.5212 4.4818 25.2013V24.3125H4.99437L7.33789 21.5L4.99437 18.6875H4.52539V13.0625H21.3125V18.1243C21.3125 19.058 21.9179 19.8406 22.7188 20.0417V42.5938H24.5645V38.375L30.7168 40.4844L24.5645 42.5938H32.5625V20.041C33.3641 19.8406 33.9688 19.058 33.9688 18.1243V13.0625H36.7812V10.9531H35.3202L36.7812 8.1793V4.625ZM3.48336 10.9531L5.12586 7.57883L6.90195 10.9531H3.48336ZM6.59258 6.73438H9.51266L8.05297 9.5082L6.59258 6.73438ZM9.20398 10.9531L10.6644 8.1793L12.1255 10.9531H9.20398ZM11.8161 6.73438H14.7362L13.2758 9.5082L11.8161 6.73438ZM14.4282 10.9531L15.8879 8.1793L17.3476 10.9531H14.4282ZM17.0396 6.73438H19.9597L18.5 9.5082L17.0396 6.73438ZM21.3125 10.9531H19.651L21.1107 8.1793L21.3125 8.5625V10.9531ZM30.7168 38.375L24.5645 36.2656L30.7168 34.1562V38.375ZM24.5645 34.1562V29.9375L30.7168 32.0483L24.5645 34.1562ZM30.7168 29.9375L24.5645 27.8281L30.7168 25.7188V29.9375ZM24.5645 25.7188V21.5014L30.7168 23.6094L24.5645 25.7188ZM30.7168 21.5014L26.6141 20.0938H30.7168V21.5014ZM31.7715 9.72125C31.7715 10.3984 31.2962 10.9531 30.7168 10.9531H24.3873C23.8079 10.9531 23.334 10.3984 23.334 9.72125V3.75172C23.334 3.07039 23.8079 2.51562 24.3873 2.51562H30.7168C31.2962 2.51562 31.7715 3.07039 31.7715 3.75172V9.72125ZM34.1691 9.5082L33.9688 9.12711V6.73438H35.6288L34.1691 9.5082Z" fill="#263D79"/>
</svg>
